<svg xmlns="http://www.w3.org/2000/svg" xmlns:xlink="http://www.w3.org/1999/xlink" width="375" zoomAndPan="magnify" viewBox="0 0 375 374.999991" height="375" preserveAspectRatio="xMidYMid meet" version="1.0"><defs fill="#ffffff"><clipPath id="8dd0a95429" fill="#ffffff"><path d="M 27 58 L 374.25 58 L 374.25 375 L 27 375 Z M 27 58 " clip-rule="nonzero" fill="#ffffff"/></clipPath></defs><path fill="#ffffff" d="M 163.871094 0.00390625 L 252.015625 0.00390625 L 256.640625 0.976562 L 260.539062 2.4375 L 263.703125 4.144531 L 267.601562 7.070312 L 270.523438 9.75 L 273.199219 11.941406 L 276.609375 15.109375 L 279.289062 17.300781 L 280.019531 18.035156 L 308.019531 18.277344 L 312.644531 18.765625 L 318.246094 20.226562 L 322.628906 22.175781 L 326.28125 24.367188 L 329.445312 26.804688 L 333.828125 31.191406 L 336.265625 34.601562 L 338.214844 38.011719 L 340.160156 43.128906 L 341.378906 48.246094 L 341.621094 50.441406 L 341.621094 57.019531 L 340.890625 61.40625 L 337.726562 73.832031 L 332.613281 93.324219 L 326.769531 115.742188 L 319.949219 141.8125 L 314.351562 163.253906 L 308.75 184.699219 L 303.148438 206.140625 L 297.550781 227.582031 L 286.347656 270.464844 L 280.992188 290.933594 L 278.558594 298.246094 L 276.851562 302.144531 L 273.929688 307.257812 L 271.253906 311.160156 L 268.085938 315.058594 L 264.191406 319.199219 L 262.242188 320.90625 L 258.589844 323.828125 L 254.9375 326.265625 L 250.554688 328.703125 L 245.929688 330.894531 L 239.355469 333.085938 L 233.996094 334.304688 L 228.640625 335.035156 L 31.898438 335.035156 L 27.515625 334.304688 L 22.644531 332.84375 L 17.53125 330.40625 L 13.636719 327.726562 L 10.714844 325.046875 L 9.496094 323.828125 L 7.0625 321.148438 L 4.871094 317.738281 L 2.921875 314.082031 L 1.21875 309.207031 L 0.242188 304.335938 L 0 301.898438 L 0 297.757812 L 0.488281 293.613281 L 3.652344 280.945312 L 9.007812 260.476562 L 20.210938 217.59375 L 25.808594 196.148438 L 31.410156 174.707031 L 38.230469 148.636719 L 43.828125 127.195312 L 49.429688 105.75 L 55.03125 84.308594 L 60.628906 62.867188 L 62.578125 56.53125 L 64.769531 51.660156 L 67.203125 47.027344 L 69.640625 43.375 L 71.832031 40.449219 L 74.996094 36.796875 L 78.40625 33.382812 L 81.082031 31.191406 L 84.980469 28.265625 L 88.632812 26.074219 L 93.746094 23.394531 L 99.34375 21.199219 L 104.703125 19.738281 L 110.058594 18.765625 L 116.148438 18.277344 L 135.871094 18.035156 L 138.304688 15.839844 L 140.984375 13.648438 L 144.390625 10.480469 L 147.070312 8.285156 L 149.75 5.851562 L 153.402344 3.414062 L 157.785156 1.464844 L 162.410156 0.246094 Z M 121.746094 121.101562 L 117.851562 121.589844 L 105.675781 124.269531 L 102.753906 125.488281 L 100.320312 127.679688 L 99.101562 129.386719 L 98.128906 132.3125 L 98.128906 136.453125 L 99.101562 139.132812 L 102.511719 144.007812 L 105.675781 148.636719 L 108.355469 152.535156 L 112.25 158.140625 L 115.417969 162.769531 L 118.09375 166.667969 L 121.992188 172.269531 L 125.15625 176.902344 L 129.050781 182.503906 L 132.21875 187.132812 L 134.894531 191.03125 L 138.792969 196.636719 L 141.46875 200.535156 L 144.148438 203.703125 L 146.582031 205.652344 L 149.992188 207.601562 L 153.886719 209.0625 L 156.324219 209.550781 L 158.757812 209.796875 L 161.921875 209.796875 L 168.011719 208.578125 L 183.105469 205.164062 L 210.378906 199.074219 L 239.839844 192.496094 L 244.710938 191.277344 L 248.605469 189.328125 L 251.042969 187.621094 L 253.964844 184.941406 L 256.398438 181.53125 L 258.101562 177.875 L 259.078125 174.21875 L 261.269531 160.820312 L 261.269531 156.921875 L 260.292969 154.238281 L 258.832031 152.046875 L 256.640625 150.097656 L 254.695312 149.125 L 252.746094 148.636719 L 249.335938 148.636719 L 200.152344 159.601562 L 170.6875 166.179688 L 166.792969 167.398438 L 166.304688 167.398438 L 163.871094 163.742188 L 159.976562 158.140625 L 156.808594 153.507812 L 154.132812 149.609375 L 150.234375 144.007812 L 147.070312 139.375 L 144.390625 135.476562 L 140.496094 129.875 L 137.816406 126.949219 L 135.382812 125 L 131.972656 123.050781 L 128.320312 121.832031 L 126.128906 121.347656 Z M 121.746094 121.101562 " fill-opacity="1" fill-rule="nonzero"/><g clip-path="url(#ffffff5429)"><path fill="#ffffff" d="M 359.398438 58.726562 L 361.101562 60.1875 L 362.320312 61.40625 L 365.242188 64.574219 L 368.164062 68.957031 L 370.355469 73.101562 L 372.300781 78.21875 L 373.761719 84.308594 L 374.25 88.9375 L 374.25 94.542969 L 373.519531 100.148438 L 370.839844 110.625 L 365.726562 129.875 L 359.152344 154.726562 L 353.796875 174.953125 L 348.441406 195.175781 L 343.082031 215.398438 L 337.726562 235.625 L 332.367188 255.847656 L 327.011719 276.070312 L 320.4375 300.925781 L 315.324219 320.171875 L 312.402344 328.945312 L 309.96875 334.304688 L 307.53125 338.691406 L 304.855469 342.835938 L 302.90625 345.515625 L 300.957031 347.949219 L 298.035156 351.363281 L 292.921875 356.480469 L 290.246094 358.671875 L 287.078125 361.109375 L 283.425781 363.546875 L 279.773438 365.738281 L 275.148438 368.175781 L 269.304688 370.613281 L 263.21875 372.5625 L 258.101562 373.777344 L 251.773438 374.753906 L 249.09375 374.996094 L 60.144531 374.996094 L 55.273438 374.265625 L 50.160156 372.804688 L 45.046875 370.613281 L 40.664062 368.175781 L 36.769531 365.25 L 33.84375 362.570312 L 31.167969 359.890625 L 28 355.75 L 27.027344 354.285156 L 27.269531 353.800781 L 32.382812 355.503906 L 36.28125 356.234375 L 38.960938 356.480469 L 238.625 356.480469 L 244.222656 355.992188 L 250.554688 354.773438 L 256.398438 353.066406 L 262.488281 350.632812 L 268.085938 347.707031 L 273.929688 343.808594 L 277.828125 340.640625 L 280.992188 337.71875 L 282.695312 336.011719 L 287.078125 330.652344 L 290 326.265625 L 292.191406 322.367188 L 294.140625 318.46875 L 296.332031 312.863281 L 298.523438 305.066406 L 305.097656 280.214844 L 311.429688 256.335938 L 316.785156 236.109375 L 322.140625 215.886719 L 327.5 195.664062 L 332.855469 175.4375 L 338.214844 155.214844 L 343.570312 134.992188 L 348.925781 114.765625 L 354.285156 94.542969 L 358.910156 77.242188 L 359.882812 72.125 L 360.128906 69.203125 L 360.128906 66.035156 L 359.640625 61.160156 Z M 359.398438 58.726562 " fill-opacity="1" fill-rule="nonzero"/></g></svg>